<svg width="470" height="69" viewBox="0 0 470 69" fill="none" xmlns="http://www.w3.org/2000/svg">
<path d="M92.8 10.2V17.6H105.76V22.8H92.8V33H86.32V5H107.48V10.2H92.8ZM122.32 33.32C120.053 33.32 118.013 32.8533 116.2 31.92C114.413 30.96 113.013 29.64 112 27.96C110.987 26.28 110.48 24.3733 110.48 22.24C110.48 20.1067 110.987 18.2 112 16.52C113.013 14.84 114.413 13.5333 116.2 12.6C118.013 11.64 120.053 11.16 122.32 11.16C124.587 11.16 126.613 11.64 128.4 12.6C130.187 13.5333 131.587 14.84 132.6 16.52C133.613 18.2 134.12 20.1067 134.12 22.24C134.12 24.3733 133.613 26.28 132.6 27.96C131.587 29.64 130.187 30.96 128.4 31.92C126.613 32.8533 124.587 33.32 122.32 33.32ZM122.32 28.2C123.92 28.2 125.227 27.6667 126.24 26.6C127.28 25.5067 127.8 24.0533 127.8 22.24C127.8 20.4267 127.28 18.9867 126.24 17.92C125.227 16.8267 123.92 16.28 122.32 16.28C120.72 16.28 119.4 16.8267 118.36 17.92C117.32 18.9867 116.8 20.4267 116.8 22.24C116.8 24.0533 117.32 25.5067 118.36 26.6C119.4 27.6667 120.72 28.2 122.32 28.2ZM149.731 33.32C147.464 33.32 145.424 32.8533 143.611 31.92C141.824 30.96 140.424 29.64 139.411 27.96C138.398 26.28 137.891 24.3733 137.891 22.24C137.891 20.1067 138.398 18.2 139.411 16.52C140.424 14.84 141.824 13.5333 143.611 12.6C145.424 11.64 147.464 11.16 149.731 11.16C151.998 11.16 154.024 11.64 155.811 12.6C157.598 13.5333 158.998 14.84 160.011 16.52C161.024 18.2 161.531 20.1067 161.531 22.24C161.531 24.3733 161.024 26.28 160.011 27.96C158.998 29.64 157.598 30.96 155.811 31.92C154.024 32.8533 151.998 33.32 149.731 33.32ZM149.731 28.2C151.331 28.2 152.638 27.6667 153.651 26.6C154.691 25.5067 155.211 24.0533 155.211 22.24C155.211 20.4267 154.691 18.9867 153.651 17.92C152.638 16.8267 151.331 16.28 149.731 16.28C148.131 16.28 146.811 16.8267 145.771 17.92C144.731 18.9867 144.211 20.4267 144.211 22.24C144.211 24.0533 144.731 25.5067 145.771 26.6C146.811 27.6667 148.131 28.2 149.731 28.2ZM180.782 31.96C180.169 32.4133 179.409 32.76 178.502 33C177.622 33.2133 176.689 33.32 175.702 33.32C173.142 33.32 171.155 32.6667 169.742 31.36C168.355 30.0533 167.662 28.1333 167.662 25.6V16.76H164.342V11.96H167.662V6.72H173.902V11.96H179.262V16.76H173.902V25.52C173.902 26.4267 174.129 27.1333 174.582 27.64C175.062 28.12 175.729 28.36 176.582 28.36C177.569 28.36 178.409 28.0933 179.102 27.56L180.782 31.96ZM205.901 22.32C205.901 22.4 205.861 22.96 205.781 24H189.501C189.794 25.3333 190.487 26.3867 191.581 27.16C192.674 27.9333 194.034 28.32 195.661 28.32C196.781 28.32 197.767 28.16 198.621 27.84C199.501 27.4933 200.314 26.96 201.061 26.24L204.381 29.84C202.354 32.16 199.394 33.32 195.501 33.32C193.074 33.32 190.927 32.8533 189.061 31.92C187.194 30.96 185.754 29.64 184.741 27.96C183.727 26.28 183.221 24.3733 183.221 22.24C183.221 20.1333 183.714 18.24 184.701 16.56C185.714 14.8533 187.087 13.5333 188.821 12.6C190.581 11.64 192.541 11.16 194.701 11.16C196.807 11.16 198.714 11.6133 200.421 12.52C202.127 13.4267 203.461 14.7333 204.421 16.44C205.407 18.12 205.901 20.08 205.901 22.32ZM194.741 15.88C193.327 15.88 192.141 16.28 191.181 17.08C190.221 17.88 189.634 18.9733 189.421 20.36H200.021C199.807 19 199.221 17.92 198.261 17.12C197.301 16.2933 196.127 15.88 194.741 15.88ZM217.215 14.32C217.962 13.28 218.962 12.4933 220.215 11.96C221.495 11.4267 222.962 11.16 224.615 11.16V16.92C223.922 16.8667 223.455 16.84 223.215 16.84C221.428 16.84 220.028 17.3467 219.015 18.36C218.002 19.3467 217.495 20.84 217.495 22.84V33H211.255V11.48H217.215V14.32ZM247.688 33L242.288 25.2H241.968H236.328V33H229.848V5H241.968C244.448 5 246.595 5.41333 248.408 6.24C250.248 7.06667 251.661 8.24 252.648 9.76C253.635 11.28 254.128 13.08 254.128 15.16C254.128 17.24 253.621 19.04 252.608 20.56C251.621 22.0533 250.208 23.2 248.368 24L254.648 33H247.688ZM247.568 15.16C247.568 13.5867 247.061 12.3867 246.048 11.56C245.035 10.7067 243.555 10.28 241.608 10.28H236.328V20.04H241.608C243.555 20.04 245.035 19.6133 246.048 18.76C247.061 17.9067 247.568 16.7067 247.568 15.16ZM268.507 11.16C271.84 11.16 274.4 11.96 276.187 13.56C277.974 15.1333 278.867 17.52 278.867 20.72V33H273.027V30.32C271.854 32.32 269.667 33.32 266.467 33.32C264.814 33.32 263.374 33.04 262.147 32.48C260.947 31.92 260.027 31.1467 259.387 30.16C258.747 29.1733 258.427 28.0533 258.427 26.8C258.427 24.8 259.174 23.2267 260.667 22.08C262.187 20.9333 264.52 20.36 267.667 20.36H272.627C272.627 19 272.214 17.96 271.387 17.24C270.56 16.4933 269.32 16.12 267.667 16.12C266.52 16.12 265.387 16.3067 264.267 16.68C263.174 17.0267 262.24 17.5067 261.467 18.12L259.227 13.76C260.4 12.9333 261.8 12.2933 263.427 11.84C265.08 11.3867 266.774 11.16 268.507 11.16ZM268.027 29.12C269.094 29.12 270.04 28.88 270.867 28.4C271.694 27.8933 272.28 27.16 272.627 26.2V24H268.347C265.787 24 264.507 24.84 264.507 26.52C264.507 27.32 264.814 27.96 265.427 28.44C266.067 28.8933 266.934 29.12 268.027 29.12ZM298.794 11.16C301.461 11.16 303.608 11.96 305.234 13.56C306.888 15.16 307.714 17.5333 307.714 20.68V33H301.474V21.64C301.474 19.9333 301.101 18.6667 300.354 17.84C299.608 16.9867 298.528 16.56 297.114 16.56C295.541 16.56 294.288 17.0533 293.354 18.04C292.421 19 291.954 20.44 291.954 22.36V33H285.714V11.48H291.674V14C292.501 13.0933 293.528 12.4 294.754 11.92C295.981 11.4133 297.328 11.16 298.794 11.16ZM328.451 31.96C327.837 32.4133 327.077 32.76 326.171 33C325.291 33.2133 324.357 33.32 323.371 33.32C320.811 33.32 318.824 32.6667 317.411 31.36C316.024 30.0533 315.331 28.1333 315.331 25.6V16.76H312.011V11.96H315.331V6.72H321.571V11.96H326.931V16.76H321.571V25.52C321.571 26.4267 321.797 27.1333 322.251 27.64C322.731 28.12 323.397 28.36 324.251 28.36C325.237 28.36 326.077 28.0933 326.771 27.56L328.451 31.96Z" fill="#E64C3C"/>
<path d="M94.94 51.72C95.74 51.9733 96.3667 52.4 96.82 53C97.2733 53.5867 97.5 54.3133 97.5 55.18C97.5 56.4067 97.02 57.3533 96.06 58.02C95.1133 58.6733 93.7267 59 91.9 59H84.66V45H91.5C93.2067 45 94.5133 45.3267 95.42 45.98C96.34 46.6333 96.8 47.52 96.8 48.64C96.8 49.32 96.6333 49.9267 96.3 50.46C95.98 50.9933 95.5267 51.4133 94.94 51.72ZM87.88 47.44V50.74H91.1C91.9 50.74 92.5067 50.6 92.92 50.32C93.3333 50.04 93.54 49.6267 93.54 49.08C93.54 48.5333 93.3333 48.1267 92.92 47.86C92.5067 47.58 91.9 47.44 91.1 47.44H87.88ZM91.66 56.56C92.5133 56.56 93.1533 56.42 93.58 56.14C94.02 55.86 94.24 55.4267 94.24 54.84C94.24 53.68 93.38 53.1 91.66 53.1H87.88V56.56H91.66ZM99.733 48.24H102.853V59H99.733V48.24ZM101.293 46.74C100.72 46.74 100.253 46.5733 99.893 46.24C99.533 45.9067 99.353 45.4933 99.353 45C99.353 44.5067 99.533 44.0933 99.893 43.76C100.253 43.4267 100.72 43.26 101.293 43.26C101.866 43.26 102.333 43.42 102.693 43.74C103.053 44.06 103.233 44.46 103.233 44.94C103.233 45.46 103.053 45.8933 102.693 46.24C102.333 46.5733 101.866 46.74 101.293 46.74ZM116.849 48.24V57.2C116.849 59.1733 116.335 60.64 115.309 61.6C114.282 62.56 112.782 63.04 110.809 63.04C109.769 63.04 108.782 62.9133 107.849 62.66C106.915 62.4067 106.142 62.04 105.529 61.56L106.769 59.32C107.222 59.6933 107.795 59.9867 108.489 60.2C109.182 60.4267 109.875 60.54 110.569 60.54C111.649 60.54 112.442 60.2933 112.949 59.8C113.469 59.32 113.729 58.5867 113.729 57.6V57.14C112.915 58.0333 111.782 58.48 110.329 58.48C109.342 58.48 108.435 58.2667 107.609 57.84C106.795 57.4 106.149 56.7867 105.669 56C105.189 55.2133 104.949 54.3067 104.949 53.28C104.949 52.2533 105.189 51.3467 105.669 50.56C106.149 49.7733 106.795 49.1667 107.609 48.74C108.435 48.3 109.342 48.08 110.329 48.08C111.889 48.08 113.075 48.5933 113.889 49.62V48.24H116.849ZM110.949 55.92C111.775 55.92 112.449 55.68 112.969 55.2C113.502 54.7067 113.769 54.0667 113.769 53.28C113.769 52.4933 113.502 51.86 112.969 51.38C112.449 50.8867 111.775 50.64 110.949 50.64C110.122 50.64 109.442 50.8867 108.909 51.38C108.375 51.86 108.109 52.4933 108.109 53.28C108.109 54.0667 108.375 54.7067 108.909 55.2C109.442 55.68 110.122 55.92 110.949 55.92ZM130.853 48.24V57.2C130.853 59.1733 130.339 60.64 129.313 61.6C128.286 62.56 126.786 63.04 124.813 63.04C123.773 63.04 122.786 62.9133 121.853 62.66C120.919 62.4067 120.146 62.04 119.533 61.56L120.773 59.32C121.226 59.6933 121.799 59.9867 122.493 60.2C123.186 60.4267 123.879 60.54 124.573 60.54C125.653 60.54 126.446 60.2933 126.953 59.8C127.473 59.32 127.733 58.5867 127.733 57.6V57.14C126.919 58.0333 125.786 58.48 124.333 58.48C123.346 58.48 122.439 58.2667 121.613 57.84C120.799 57.4 120.153 56.7867 119.673 56C119.193 55.2133 118.953 54.3067 118.953 53.28C118.953 52.2533 119.193 51.3467 119.673 50.56C120.153 49.7733 120.799 49.1667 121.613 48.74C122.439 48.3 123.346 48.08 124.333 48.08C125.893 48.08 127.079 48.5933 127.893 49.62V48.24H130.853ZM124.953 55.92C125.779 55.92 126.453 55.68 126.973 55.2C127.506 54.7067 127.773 54.0667 127.773 53.28C127.773 52.4933 127.506 51.86 126.973 51.38C126.453 50.8867 125.779 50.64 124.953 50.64C124.126 50.64 123.446 50.8867 122.913 51.38C122.379 51.86 122.113 52.4933 122.113 53.28C122.113 54.0667 122.379 54.7067 122.913 55.2C123.446 55.68 124.126 55.92 124.953 55.92ZM144.296 53.66C144.296 53.7 144.276 53.98 144.236 54.5H136.096C136.243 55.1667 136.59 55.6933 137.136 56.08C137.683 56.4667 138.363 56.66 139.176 56.66C139.736 56.66 140.23 56.58 140.656 56.42C141.096 56.2467 141.503 55.98 141.876 55.62L143.536 57.42C142.523 58.58 141.043 59.16 139.096 59.16C137.883 59.16 136.81 58.9267 135.876 58.46C134.943 57.98 134.223 57.32 133.716 56.48C133.21 55.64 132.956 54.6867 132.956 53.62C132.956 52.5667 133.203 51.62 133.696 50.78C134.203 49.9267 134.89 49.2667 135.756 48.8C136.636 48.32 137.616 48.08 138.696 48.08C139.75 48.08 140.703 48.3067 141.556 48.76C142.41 49.2133 143.076 49.8667 143.556 50.72C144.05 51.56 144.296 52.54 144.296 53.66ZM138.716 50.44C138.01 50.44 137.416 50.64 136.936 51.04C136.456 51.44 136.163 51.9867 136.056 52.68H141.356C141.25 52 140.956 51.46 140.476 51.06C139.996 50.6467 139.41 50.44 138.716 50.44ZM149.994 59.16C149.1 59.16 148.227 59.0533 147.374 58.84C146.52 58.6133 145.84 58.3333 145.334 58L146.374 55.76C146.854 56.0667 147.434 56.32 148.114 56.52C148.794 56.7067 149.46 56.8 150.114 56.8C151.434 56.8 152.094 56.4733 152.094 55.82C152.094 55.5133 151.914 55.2933 151.554 55.16C151.194 55.0267 150.64 54.9133 149.894 54.82C149.014 54.6867 148.287 54.5333 147.714 54.36C147.14 54.1867 146.64 53.88 146.214 53.44C145.8 53 145.594 52.3733 145.594 51.56C145.594 50.88 145.787 50.28 146.174 49.76C146.574 49.2267 147.147 48.8133 147.894 48.52C148.654 48.2267 149.547 48.08 150.574 48.08C151.334 48.08 152.087 48.1667 152.834 48.34C153.594 48.5 154.22 48.7267 154.714 49.02L153.674 51.24C152.727 50.7067 151.694 50.44 150.574 50.44C149.907 50.44 149.407 50.5333 149.074 50.72C148.74 50.9067 148.574 51.1467 148.574 51.44C148.574 51.7733 148.754 52.0067 149.114 52.14C149.474 52.2733 150.047 52.4 150.834 52.52C151.714 52.6667 152.434 52.8267 152.994 53C153.554 53.16 154.04 53.46 154.454 53.9C154.867 54.34 155.074 54.9533 155.074 55.74C155.074 56.4067 154.874 57 154.474 57.52C154.074 58.04 153.487 58.4467 152.714 58.74C151.954 59.02 151.047 59.16 149.994 59.16ZM163.939 58.48C163.632 58.7067 163.252 58.88 162.799 59C162.359 59.1067 161.892 59.16 161.399 59.16C160.119 59.16 159.125 58.8333 158.419 58.18C157.725 57.5267 157.379 56.5667 157.379 55.3V50.88H155.719V48.48H157.379V45.86H160.499V48.48H163.179V50.88H160.499V55.26C160.499 55.7133 160.612 56.0667 160.839 56.32C161.079 56.56 161.412 56.68 161.839 56.68C162.332 56.68 162.752 56.5467 163.099 56.28L163.939 58.48ZM178.274 59.24C176.847 59.24 175.554 58.9333 174.394 58.32C173.247 57.6933 172.341 56.8333 171.674 55.74C171.021 54.6333 170.694 53.3867 170.694 52C170.694 50.6133 171.021 49.3733 171.674 48.28C172.341 47.1733 173.247 46.3133 174.394 45.7C175.554 45.0733 176.854 44.76 178.294 44.76C179.507 44.76 180.601 44.9733 181.574 45.4C182.561 45.8267 183.387 46.44 184.054 47.24L181.974 49.16C181.027 48.0667 179.854 47.52 178.454 47.52C177.587 47.52 176.814 47.7133 176.134 48.1C175.454 48.4733 174.921 49 174.534 49.68C174.161 50.36 173.974 51.1333 173.974 52C173.974 52.8667 174.161 53.64 174.534 54.32C174.921 55 175.454 55.5333 176.134 55.92C176.814 56.2933 177.587 56.48 178.454 56.48C179.854 56.48 181.027 55.9267 181.974 54.82L184.054 56.74C183.387 57.5533 182.561 58.1733 181.574 58.6C180.587 59.0267 179.487 59.24 178.274 59.24ZM190.771 59.16C189.638 59.16 188.618 58.9267 187.711 58.46C186.818 57.98 186.118 57.32 185.611 56.48C185.104 55.64 184.851 54.6867 184.851 53.62C184.851 52.5533 185.104 51.6 185.611 50.76C186.118 49.92 186.818 49.2667 187.711 48.8C188.618 48.32 189.638 48.08 190.771 48.08C191.904 48.08 192.918 48.32 193.811 48.8C194.704 49.2667 195.404 49.92 195.911 50.76C196.418 51.6 196.671 52.5533 196.671 53.62C196.671 54.6867 196.418 55.64 195.911 56.48C195.404 57.32 194.704 57.98 193.811 58.46C192.918 58.9267 191.904 59.16 190.771 59.16ZM190.771 56.6C191.571 56.6 192.224 56.3333 192.731 55.8C193.251 55.2533 193.511 54.5267 193.511 53.62C193.511 52.7133 193.251 51.9933 192.731 51.46C192.224 50.9133 191.571 50.64 190.771 50.64C189.971 50.64 189.311 50.9133 188.791 51.46C188.271 51.9933 188.011 52.7133 188.011 53.62C188.011 54.5267 188.271 55.2533 188.791 55.8C189.311 56.3333 189.971 56.6 190.771 56.6ZM212.536 48.08C213.883 48.08 214.95 48.48 215.736 49.28C216.536 50.0667 216.936 51.2533 216.936 52.84V59H213.816V53.32C213.816 52.4667 213.636 51.8333 213.276 51.42C212.93 50.9933 212.43 50.78 211.776 50.78C211.043 50.78 210.463 51.02 210.036 51.5C209.61 51.9667 209.396 52.6667 209.396 53.6V59H206.276V53.32C206.276 51.6267 205.596 50.78 204.236 50.78C203.516 50.78 202.943 51.02 202.516 51.5C202.09 51.9667 201.876 52.6667 201.876 53.6V59H198.756V48.24H201.736V49.48C202.136 49.0267 202.623 48.68 203.196 48.44C203.783 48.2 204.423 48.08 205.116 48.08C205.876 48.08 206.563 48.2333 207.176 48.54C207.79 48.8333 208.283 49.2667 208.656 49.84C209.096 49.28 209.65 48.8467 210.316 48.54C210.996 48.2333 211.736 48.08 212.536 48.08ZM233.513 48.08C234.86 48.08 235.926 48.48 236.713 49.28C237.513 50.0667 237.913 51.2533 237.913 52.84V59H234.793V53.32C234.793 52.4667 234.613 51.8333 234.253 51.42C233.906 50.9933 233.406 50.78 232.753 50.78C232.02 50.78 231.44 51.02 231.013 51.5C230.586 51.9667 230.373 52.6667 230.373 53.6V59H227.253V53.32C227.253 51.6267 226.573 50.78 225.213 50.78C224.493 50.78 223.92 51.02 223.493 51.5C223.066 51.9667 222.853 52.6667 222.853 53.6V59H219.733V48.24H222.713V49.48C223.113 49.0267 223.6 48.68 224.173 48.44C224.76 48.2 225.4 48.08 226.093 48.08C226.853 48.08 227.54 48.2333 228.153 48.54C228.766 48.8333 229.26 49.2667 229.633 49.84C230.073 49.28 230.626 48.8467 231.293 48.54C231.973 48.2333 232.713 48.08 233.513 48.08ZM251.55 48.24V59H248.59V57.72C248.176 58.1867 247.683 58.5467 247.11 58.8C246.536 59.04 245.916 59.16 245.25 59.16C243.836 59.16 242.716 58.7533 241.89 57.94C241.063 57.1267 240.65 55.92 240.65 54.32V48.24H243.77V53.86C243.77 55.5933 244.496 56.46 245.95 56.46C246.696 56.46 247.296 56.22 247.75 55.74C248.203 55.2467 248.43 54.52 248.43 53.56V48.24H251.55ZM260.98 48.08C262.313 48.08 263.387 48.48 264.2 49.28C265.027 50.08 265.44 51.2667 265.44 52.84V59H262.32V53.32C262.32 52.4667 262.133 51.8333 261.76 51.42C261.387 50.9933 260.847 50.78 260.14 50.78C259.353 50.78 258.727 51.0267 258.26 51.52C257.793 52 257.56 52.72 257.56 53.68V59H254.44V48.24H257.42V49.5C257.833 49.0467 258.347 48.7 258.96 48.46C259.573 48.2067 260.247 48.08 260.98 48.08ZM268.268 48.24H271.388V59H268.268V48.24ZM269.828 46.74C269.255 46.74 268.788 46.5733 268.428 46.24C268.068 45.9067 267.888 45.4933 267.888 45C267.888 44.5067 268.068 44.0933 268.428 43.76C268.788 43.4267 269.255 43.26 269.828 43.26C270.401 43.26 270.868 43.42 271.228 43.74C271.588 44.06 271.768 44.46 271.768 44.94C271.768 45.46 271.588 45.8933 271.228 46.24C270.868 46.5733 270.401 46.74 269.828 46.74ZM281.224 58.48C280.917 58.7067 280.537 58.88 280.084 59C279.644 59.1067 279.177 59.16 278.684 59.16C277.404 59.16 276.41 58.8333 275.704 58.18C275.01 57.5267 274.664 56.5667 274.664 55.3V50.88H273.004V48.48H274.664V45.86H277.784V48.48H280.464V50.88H277.784V55.26C277.784 55.7133 277.897 56.0667 278.124 56.32C278.364 56.56 278.697 56.68 279.124 56.68C279.617 56.68 280.037 56.5467 280.384 56.28L281.224 58.48ZM293.46 48.24L288.6 59.66C288.107 60.9 287.493 61.7733 286.76 62.28C286.04 62.7867 285.167 63.04 284.14 63.04C283.58 63.04 283.027 62.9533 282.48 62.78C281.933 62.6067 281.487 62.3667 281.14 62.06L282.28 59.84C282.52 60.0533 282.793 60.22 283.1 60.34C283.42 60.46 283.733 60.52 284.04 60.52C284.467 60.52 284.813 60.4133 285.08 60.2C285.347 60 285.587 59.66 285.8 59.18L285.84 59.08L281.18 48.24H284.4L287.42 55.54L290.46 48.24H293.46ZM307.397 59.24C305.944 59.24 304.63 58.9267 303.457 58.3C302.297 57.6733 301.384 56.8133 300.717 55.72C300.064 54.6133 299.737 53.3733 299.737 52C299.737 50.6267 300.064 49.3933 300.717 48.3C301.384 47.1933 302.297 46.3267 303.457 45.7C304.63 45.0733 305.944 44.76 307.397 44.76C308.85 44.76 310.157 45.0733 311.317 45.7C312.477 46.3267 313.39 47.1933 314.057 48.3C314.724 49.3933 315.057 50.6267 315.057 52C315.057 53.3733 314.724 54.6133 314.057 55.72C313.39 56.8133 312.477 57.6733 311.317 58.3C310.157 58.9267 308.85 59.24 307.397 59.24ZM307.397 56.48C308.224 56.48 308.97 56.2933 309.637 55.92C310.304 55.5333 310.824 55 311.197 54.32C311.584 53.64 311.777 52.8667 311.777 52C311.777 51.1333 311.584 50.36 311.197 49.68C310.824 49 310.304 48.4733 309.637 48.1C308.97 47.7133 308.224 47.52 307.397 47.52C306.57 47.52 305.824 47.7133 305.157 48.1C304.49 48.4733 303.964 49 303.577 49.68C303.204 50.36 303.017 51.1333 303.017 52C303.017 52.8667 303.204 53.64 303.577 54.32C303.964 55 304.49 55.5333 305.157 55.92C305.824 56.2933 306.57 56.48 307.397 56.48ZM320.692 48.48H323.452V50.88H320.772V59H317.652V50.88H315.992V48.48H317.652V48C317.652 46.7733 318.012 45.8 318.732 45.08C319.465 44.36 320.492 44 321.812 44C322.279 44 322.719 44.0533 323.132 44.16C323.559 44.2533 323.912 44.3933 324.192 44.58L323.372 46.84C323.012 46.5867 322.592 46.46 322.112 46.46C321.165 46.46 320.692 46.98 320.692 48.02V48.48ZM334.13 47.6V51.3H340.61V53.9H334.13V59H330.89V45H341.47V47.6H334.13ZM348.29 59.16C347.157 59.16 346.137 58.9267 345.23 58.46C344.337 57.98 343.637 57.32 343.13 56.48C342.624 55.64 342.37 54.6867 342.37 53.62C342.37 52.5533 342.624 51.6 343.13 50.76C343.637 49.92 344.337 49.2667 345.23 48.8C346.137 48.32 347.157 48.08 348.29 48.08C349.424 48.08 350.437 48.32 351.33 48.8C352.224 49.2667 352.924 49.92 353.43 50.76C353.937 51.6 354.19 52.5533 354.19 53.62C354.19 54.6867 353.937 55.64 353.43 56.48C352.924 57.32 352.224 57.98 351.33 58.46C350.437 58.9267 349.424 59.16 348.29 59.16ZM348.29 56.6C349.09 56.6 349.744 56.3333 350.25 55.8C350.77 55.2533 351.03 54.5267 351.03 53.62C351.03 52.7133 350.77 51.9933 350.25 51.46C349.744 50.9133 349.09 50.64 348.29 50.64C347.49 50.64 346.83 50.9133 346.31 51.46C345.79 51.9933 345.53 52.7133 345.53 53.62C345.53 54.5267 345.79 55.2533 346.31 55.8C346.83 56.3333 347.49 56.6 348.29 56.6ZM361.396 59.16C360.263 59.16 359.243 58.9267 358.336 58.46C357.443 57.98 356.743 57.32 356.236 56.48C355.729 55.64 355.476 54.6867 355.476 53.62C355.476 52.5533 355.729 51.6 356.236 50.76C356.743 49.92 357.443 49.2667 358.336 48.8C359.243 48.32 360.263 48.08 361.396 48.08C362.529 48.08 363.543 48.32 364.436 48.8C365.329 49.2667 366.029 49.92 366.536 50.76C367.043 51.6 367.296 52.5533 367.296 53.62C367.296 54.6867 367.043 55.64 366.536 56.48C366.029 57.32 365.329 57.98 364.436 58.46C363.543 58.9267 362.529 59.16 361.396 59.16ZM361.396 56.6C362.196 56.6 362.849 56.3333 363.356 55.8C363.876 55.2533 364.136 54.5267 364.136 53.62C364.136 52.7133 363.876 51.9933 363.356 51.46C362.849 50.9133 362.196 50.64 361.396 50.64C360.596 50.64 359.936 50.9133 359.416 51.46C358.896 51.9933 358.636 52.7133 358.636 53.62C358.636 54.5267 358.896 55.2533 359.416 55.8C359.936 56.3333 360.596 56.6 361.396 56.6ZM376.321 58.48C376.015 58.7067 375.635 58.88 375.181 59C374.741 59.1067 374.275 59.16 373.781 59.16C372.501 59.16 371.508 58.8333 370.801 58.18C370.108 57.5267 369.761 56.5667 369.761 55.3V50.88H368.101V48.48H369.761V45.86H372.881V48.48H375.561V50.88H372.881V55.26C372.881 55.7133 372.995 56.0667 373.221 56.32C373.461 56.56 373.795 56.68 374.221 56.68C374.715 56.68 375.135 56.5467 375.481 56.28L376.321 58.48ZM384.433 48.08C385.433 48.08 386.339 48.3133 387.153 48.78C387.979 49.2333 388.626 49.88 389.093 50.72C389.559 51.5467 389.793 52.5133 389.793 53.62C389.793 54.7267 389.559 55.7 389.093 56.54C388.626 57.3667 387.979 58.0133 387.153 58.48C386.339 58.9333 385.433 59.16 384.433 59.16C382.953 59.16 381.826 58.6933 381.053 57.76V59H378.073V44.16H381.193V49.38C381.979 48.5133 383.059 48.08 384.433 48.08ZM383.893 56.6C384.693 56.6 385.346 56.3333 385.853 55.8C386.373 55.2533 386.633 54.5267 386.633 53.62C386.633 52.7133 386.373 51.9933 385.853 51.46C385.346 50.9133 384.693 50.64 383.893 50.64C383.093 50.64 382.433 50.9133 381.913 51.46C381.406 51.9933 381.153 52.7133 381.153 53.62C381.153 54.5267 381.406 55.2533 381.913 55.8C382.433 56.3333 383.093 56.6 383.893 56.6ZM396.046 48.08C397.712 48.08 398.992 48.48 399.886 49.28C400.779 50.0667 401.226 51.26 401.226 52.86V59H398.306V57.66C397.719 58.66 396.626 59.16 395.026 59.16C394.199 59.16 393.479 59.02 392.866 58.74C392.266 58.46 391.806 58.0733 391.486 57.58C391.166 57.0867 391.006 56.5267 391.006 55.9C391.006 54.9 391.379 54.1133 392.126 53.54C392.886 52.9667 394.052 52.68 395.626 52.68H398.106C398.106 52 397.899 51.48 397.486 51.12C397.072 50.7467 396.452 50.56 395.626 50.56C395.052 50.56 394.486 50.6533 393.926 50.84C393.379 51.0133 392.912 51.2533 392.526 51.56L391.406 49.38C391.992 48.9667 392.692 48.6467 393.506 48.42C394.332 48.1933 395.179 48.08 396.046 48.08ZM395.806 57.06C396.339 57.06 396.812 56.94 397.226 56.7C397.639 56.4467 397.932 56.08 398.106 55.6V54.5H395.966C394.686 54.5 394.046 54.92 394.046 55.76C394.046 56.16 394.199 56.48 394.506 56.72C394.826 56.9467 395.259 57.06 395.806 57.06ZM404.049 44.16H407.169V59H404.049V44.16ZM410.065 44.16H413.185V59H410.065V44.16ZM425.205 47.6V51.3H431.685V53.9H425.205V59H421.965V45H432.545V47.6H425.205ZM438.565 48.08C440.232 48.08 441.512 48.48 442.405 49.28C443.298 50.0667 443.745 51.26 443.745 52.86V59H440.825V57.66C440.238 58.66 439.145 59.16 437.545 59.16C436.718 59.16 435.998 59.02 435.385 58.74C434.785 58.46 434.325 58.0733 434.005 57.58C433.685 57.0867 433.525 56.5267 433.525 55.9C433.525 54.9 433.898 54.1133 434.645 53.54C435.405 52.9667 436.572 52.68 438.145 52.68H440.625C440.625 52 440.418 51.48 440.005 51.12C439.592 50.7467 438.972 50.56 438.145 50.56C437.572 50.56 437.005 50.6533 436.445 50.84C435.898 51.0133 435.432 51.2533 435.045 51.56L433.925 49.38C434.512 48.9667 435.212 48.6467 436.025 48.42C436.852 48.1933 437.698 48.08 438.565 48.08ZM438.325 57.06C438.858 57.06 439.332 56.94 439.745 56.7C440.158 56.4467 440.452 56.08 440.625 55.6V54.5H438.485C437.205 54.5 436.565 54.92 436.565 55.76C436.565 56.16 436.718 56.48 437.025 56.72C437.345 56.9467 437.778 57.06 438.325 57.06ZM453.109 48.08C454.442 48.08 455.516 48.48 456.329 49.28C457.156 50.08 457.569 51.2667 457.569 52.84V59H454.449V53.32C454.449 52.4667 454.262 51.8333 453.889 51.42C453.516 50.9933 452.976 50.78 452.269 50.78C451.482 50.78 450.856 51.0267 450.389 51.52C449.922 52 449.689 52.72 449.689 53.68V59H446.569V48.24H449.549V49.5C449.962 49.0467 450.476 48.7 451.089 48.46C451.702 48.2067 452.376 48.08 453.109 48.08ZM464.017 59.16C463.124 59.16 462.25 59.0533 461.397 58.84C460.544 58.6133 459.864 58.3333 459.357 58L460.397 55.76C460.877 56.0667 461.457 56.32 462.137 56.52C462.817 56.7067 463.484 56.8 464.137 56.8C465.457 56.8 466.117 56.4733 466.117 55.82C466.117 55.5133 465.937 55.2933 465.577 55.16C465.217 55.0267 464.664 54.9133 463.917 54.82C463.037 54.6867 462.31 54.5333 461.737 54.36C461.164 54.1867 460.664 53.88 460.237 53.44C459.824 53 459.617 52.3733 459.617 51.56C459.617 50.88 459.81 50.28 460.197 49.76C460.597 49.2267 461.17 48.8133 461.917 48.52C462.677 48.2267 463.57 48.08 464.597 48.08C465.357 48.08 466.11 48.1667 466.857 48.34C467.617 48.5 468.244 48.7267 468.737 49.02L467.697 51.24C466.75 50.7067 465.717 50.44 464.597 50.44C463.93 50.44 463.43 50.5333 463.097 50.72C462.764 50.9067 462.597 51.1467 462.597 51.44C462.597 51.7733 462.777 52.0067 463.137 52.14C463.497 52.2733 464.07 52.4 464.857 52.52C465.737 52.6667 466.457 52.8267 467.017 53C467.577 53.16 468.064 53.46 468.477 53.9C468.89 54.34 469.097 54.9533 469.097 55.74C469.097 56.4067 468.897 57 468.497 57.52C468.097 58.04 467.51 58.4467 466.737 58.74C465.977 59.02 465.07 59.16 464.017 59.16Z" fill="#8F8D8D"/>
<path d="M34.5 69C53.5538 69 69 53.5538 69 34.5C69 15.4462 53.5538 0 34.5 0C15.4462 0 0 15.4462 0 34.5C0 53.5538 15.4462 69 34.5 69Z" fill="#C03A2B"/>
<path d="M65.4309 30.9309C65.4317 44.4264 57.563 56.6832 45.2921 62.3005C33.0211 67.9177 18.6015 65.8638 8.38691 57.0438C-3.42558 43.3634 -2.67633 22.8849 10.1043 10.1043C22.8849 -2.67633 43.3634 -3.42558 57.0438 8.38691C62.4677 14.6436 65.4465 22.6505 65.4309 30.9309Z" fill="#E64C3C"/>
<path d="M17.845 28.5519C20.4732 28.5519 22.6037 26.4214 22.6037 23.7933C22.6037 21.1652 20.4732 19.0347 17.845 19.0347C15.2169 19.0347 13.0864 21.1652 13.0864 23.7933C13.0864 26.4214 15.2169 28.5519 17.845 28.5519Z" fill="white"/>
<path d="M41.638 28.5519C44.2661 28.5519 46.3966 26.4214 46.3966 23.7933C46.3966 21.1652 44.2661 19.0347 41.638 19.0347C39.0099 19.0347 36.8794 21.1652 36.8794 23.7933C36.8794 26.4214 39.0099 28.5519 41.638 28.5519Z" fill="white"/>
<path d="M16.6552 26.1727C17.9692 26.1727 19.0345 25.1074 19.0345 23.7934C19.0345 22.4793 17.9692 21.4141 16.6552 21.4141C15.3411 21.4141 14.2759 22.4793 14.2759 23.7934C14.2759 25.1074 15.3411 26.1727 16.6552 26.1727Z" fill="#2C3E50"/>
<path d="M40.4482 26.1727C41.7622 26.1727 42.8275 25.1074 42.8275 23.7934C42.8275 22.4793 41.7622 21.4141 40.4482 21.4141C39.1341 21.4141 38.0688 22.4793 38.0688 23.7934C38.0688 25.1074 39.1341 26.1727 40.4482 26.1727Z" fill="#2C3E50"/>
<path d="M17.8449 22.6034C18.502 22.6034 19.0346 22.0708 19.0346 21.4138C19.0346 20.7567 18.502 20.2241 17.8449 20.2241C17.1879 20.2241 16.6553 20.7567 16.6553 21.4138C16.6553 22.0708 17.1879 22.6034 17.8449 22.6034Z" fill="white"/>
<path d="M41.6379 22.6034C42.2949 22.6034 42.8275 22.0708 42.8275 21.4138C42.8275 20.7567 42.2949 20.2241 41.6379 20.2241C40.9809 20.2241 40.4482 20.7567 40.4482 21.4138C40.4482 22.0708 40.9809 22.6034 41.6379 22.6034Z" fill="white"/>
<path d="M23.792 23.7931C23.5445 23.7932 23.3032 23.7158 23.102 23.5718L14.7744 17.6235C14.4284 17.3766 14.2405 16.9638 14.2814 16.5407C14.3223 16.1175 14.5858 15.7484 14.9727 15.5723C15.3596 15.3961 15.811 15.4398 16.157 15.6868L24.4846 21.6351C24.9059 21.9357 25.0845 22.4742 24.9263 22.967C24.7682 23.4598 24.3095 23.7938 23.792 23.7931Z" fill="#C03A2B"/>
<path d="M35.6907 23.7931C35.1732 23.7937 34.7146 23.4597 34.5565 22.9669C34.3984 22.4741 34.577 21.9357 34.9982 21.6351L43.3258 15.6868C43.6718 15.4398 44.1232 15.3961 44.5101 15.5723C44.897 15.7484 45.1605 16.1175 45.2014 16.5407C45.2423 16.9638 45.0544 17.3766 44.7084 17.6235L36.3808 23.5718C36.1796 23.7158 35.9382 23.7932 35.6907 23.7931Z" fill="#C03A2B"/>
<path d="M24.9825 32.1206H34.4998C36.4709 32.1206 38.0687 33.7185 38.0687 35.6896V42.8275C38.0687 43.4845 37.5361 44.0171 36.8791 44.0171H22.6032C21.9462 44.0171 21.4136 43.4845 21.4136 42.8275V35.6896C21.4136 33.7185 23.0115 32.1206 24.9825 32.1206Z" fill="#802F34"/>
<path d="M38.0692 36.8793V42.8276C38.0673 43.4838 37.5358 44.0153 36.8795 44.0172H28.5519C28.2028 43.269 27.997 42.462 27.9452 41.6379C27.6597 35.9276 38.0692 36.8793 38.0692 36.8793Z" fill="#FF5364"/>
<path d="M38.0692 36.8793V40.4483C38.0057 41.1572 37.3875 41.6856 36.6773 41.6379H27.9452C27.6597 35.9276 38.0692 36.8793 38.0692 36.8793Z" fill="#FB7B76"/>
</svg>
